PathFileType	4	(X/Y/Z)	C:\My Captures\DataSMARTClinic\0004~001 ID\0004~aa~STRATO_01\Standing_STRATO_ID_01.trc
DataRate	CameraRate	NumFrames	NumMarkers	Units	OrigDataRate	OrigDataStartFrame	OrigNumFrames
250.00	250.00	12	22	mm	250.00	1345	2711
Frame#	Time	r.should			l.should			c7			r.asis			l.asis			sacrum			r.bar1			l.bar1			r.knee1			l.knee1			r.bar2			r.mall			l.bar2			l.mall			r.met			r.heel			l.heel			l.met			r.mallm			l.mallm			r.kneem			l.kneem			
		X1	Y1	Z1	X2	Y2	Z2	X3	Y3	Z3	X4	Y4	Z4	X5	Y5	Z5	X6	Y6	Z6	X7	Y7	Z7	X8	Y8	Z8	X9	Y9	Z9	X10	Y10	Z10	X11	Y11	Z11	X12	Y12	Z12	X13	Y13	Z13	X14	Y14	Z14	X15	Y15	Z15	X16	Y16	Z16	X17	Y17	Z17	X18	Y18	Z18	X19	Y19	Z19	X20	Y20	Z20	X21	Y21	Z21	X22	Y22	Z22	

1344	5.376000	884.078145	1282.432437	339.925170	845.344722	1281.046629	36.250561	777.171373	1346.305132	189.033762	935.104787	872.959137	345.048845	954.719186	873.677671	76.265357	740.887582	900.582492	193.348423	864.905357	786.274850	392.152101	895.295978	773.612857	15.854059	838.571429	438.359439	355.472326	848.879397	434.597731	37.328966	819.110394	377.955288	360.402793	810.149968	79.363003	332.310945	840.567112	367.446780	31.853341	818.776667	75.955331	48.997104	933.987617	43.907192	313.307345	750.387132	43.697666	291.556478	750.793576	42.873226	83.154313	944.940388	41.331809	83.393522	812.206507	76.040894	252.385288	822.372794	81.947252	126.086876	824.382186	410.460919	228.327304	839.422286	406.258285	163.837150	
1345	5.380000	884.017229	1282.417893	339.929402	845.307231	1281.042933	36.244050	777.151644	1346.308351	189.050019	935.026348	872.946799	345.040709	954.685330	873.678565	76.263800	740.837932	900.595069	193.343505	864.884615	786.253214	392.131895	895.287812	773.618996	15.857710	838.536263	438.344538	355.481207	848.872483	434.600472	37.323195	819.082916	377.956271	360.399127	810.133040	79.348259	332.313031	840.570033	367.453158	31.831965	818.765581	75.951666	48.991345	933.973312	43.899275	313.303173	750.323534	43.741040	291.550577	750.221610	42.996522	82.812943	944.924653	41.327666	83.394527	812.191010	76.041237	252.381653	822.370291	81.945553	126.091331	824.378490	410.462201	228.322983	839.411974	406.260669	163.838223	
1346	5.384000	883.972287	1282.409549	339.925587	845.278621	1281.038880	36.239441	777.131379	1346.333742	189.047024	934.956968	872.929871	345.029086	954.630256	873.665392	76.260403	740.785360	900.605023	193.332195	864.825010	786.278069	392.132282	895.335853	773.617983	15.868016	838.492751	438.331723	355.497390	848.869085	434.598595	37.320890	819.056392	377.949357	360.392839	810.113072	79.336323	332.314193	840.570748	367.451131	31.824771	818.755865	75.946078	48.993707	933.966458	43.892030	313.294113	750.287354	43.767557	291.557938	749.097943	43.246336	82.134947	944.917321	41.330736	83.392836	812.166274	76.047853	252.382129	822.364271	81.944086	126.093686	824.350893	410.464048	228.324056	839.389920	406.257987	163.833544	
1347	5.388000	883.956432	1282.409549	339.922518	845.242858	1281.037807	36.234464	777.069747	1346.352696	189.021707	934.921980	872.914076	345.035106	954.605162	873.664021	76.262027	740.770817	900.595844	193.323195	864.824831	786.268234	392.129570	895.300686	773.632526	15.869213	838.480234	438.327670	355.486125	848.855138	434.587628	37.313506	819.038630	377.940863	360.386133	810.120702	79.347283	332.317024	840.564966	367.455423	31.822752	818.750799	75.937398	49.000379	933.959842	43.887254	313.293070	750.259519	43.738645	291.537762	749.782145	43.098498	82.545906	944.907784	41.326165	83.384492	812.144339	76.033577	252.384603	822.355747	81.935063	126.078874	824.322879	410.456181	228.316844	839.373469	406.248301	163.826808	
1348	5.392000	883.942723	1282.408476	339.919120	845.235825	1281.040430	36.234498	777.029574	1346.345425	189.002186	934.913874	872.914374	345.040858	954.592884	873.663068	76.265790	740.759254	900.592864	193.326205	864.831865	786.272526	392.133713	895.272911	773.638010	15.884267	838.458180	438.315690	355.480701	848.858953	434.608519	37.310593	819.026530	377.942026	360.390514	810.123682	79.342440	332.309663	840.572178	367.462695	31.817511	818.743050	75.939044	48.990022	933.967233	43.887567	313.296735	750.203252	43.770142	291.556835	747.986674	43.484844	81.490979	944.916308	41.313559	83.388411	812.137663	76.027378	252.381295	822.353005	81.935428	126.071692	824.317038	410.456240	228.309482	839.363933	406.238139	163.813710	
1349	5.396000	883.923888	1282.398939	339.924693	845.231235	1281.038284	36.243394	777.008414	1346.323967	189.008951	934.907436	872.939527	345.039248	954.556227	873.654664	76.257013	740.733862	900.598526	193.332136	864.813447	786.284566	392.121017	895.215988	773.620963	15.886240	838.448524	438.320130	355.477393	848.848820	434.616596	37.314534	819.024801	377.940744	360.397577	810.120821	79.337113	332.311779	840.557456	367.458165	31.820200	818.752170	75.937107	48.985064	933.976948	43.897424	313.301802	750.216305	43.745097	291.560054	748.537362	43.337360	81.800386	944.939494	41.313592	83.393171	812.145412	76.027140	252.388477	822.349727	81.932999	126.074642	824.307621	410.469085	228.314340	839.377344	406.245559	163.804576	
1350	5.400000	883.912086	1282.400250	339.918852	845.218718	1281.035900	36.241062	776.977777	1346.327305	189.023793	934.928775	872.943461	345.026433	954.545677	873.658419	76.237500	740.703583	900.602639	193.345457	864.786386	786.306500	392.138511	895.199120	773.629010	15.872752	838.493407	438.327432	355.471373	848.863184	434.623808	37.313871	819.038630	377.942443	360.402912	810.115457	79.330869	332.317293	840.540528	367.450356	31.817894	818.763852	75.939521	48.989702	933.998287	43.907650	313.310444	750.239730	43.726552	291.554064	750.656545	42.880915	83.048530	944.957018	41.320890	83.398446	812.177300	76.037243	252.380967	822.360635	81.930928	126.072645	824.302435	410.474956	228.312522	839.390278	406.242967	163.805187	
1351	5.404000	883.892059	1282.383204	339.910507	845.219433	1281.028748	36.248438	776.957929	1346.320748	189.027131	934.946835	872.947454	345.025063	954.528391	873.653710	76.230340	740.696549	900.585294	193.361387	864.765406	786.312163	392.167091	895.168483	773.618042	15.861226	838.523626	438.341796	355.486691	848.865926	434.626848	37.311856	819.036722	377.947450	360.402346	810.124159	79.324290	332.322031	840.536714	367.462724	31.822257	818.753779	75.933091	48.999175	934.010804	43.903239	313.313246	750.249088	43.740861	291.576147	751.212001	42.760760	83.354652	944.966376	41.323751	83.403215	812.191963	76.036572	252.390683	822.353303	81.919268	126.075238	824.289560	410.472631	228.324354	839.377284	406.233191	163.820431	
1352	5.408000	883.874416	1282.369614	339.911342	845.211089	1281.032324	36.252834	776.942790	1346.303701	189.047843	934.943080	872.953355	345.031321	954.500735	873.651981	76.232560	740.687072	900.561213	193.377540	864.738703	786.293864	392.185360	895.106912	773.618937	15.870042	838.476002	438.361615	355.491757	848.839521	434.616387	37.315812	819.023728	377.940595	360.410064	810.136855	79.322748	332.320154	840.543091	367.459327	31.825937	818.756580	75.923972	49.002353	934.008777	43.893587	313.315868	750.267506	43.741383	291.596085	751.304507	42.736296	83.444700	944.955826	41.320302	83.410338	812.187433	76.023817	252.397776	822.346449	81.908546	126.085952	824.270487	410.471678	228.333265	839.375257	406.223118	163.823217	
1353	5.412000	883.859515	1282.369614	339.914858	845.190108	1281.035781	36.253005	776.924193	1346.289873	189.043656	934.884071	872.949421	345.011592	954.475880	873.651743	76.230913	740.665078	900.549769	193.376601	864.695072	786.308825	392.181396	895.066798	773.618102	15.854929	838.435888	438.376635	355.506361	848.828018	434.616148	37.318982	819.005013	377.936989	360.414326	810.143113	79.331264	332.322985	840.543389	367.446542	31.823032	818.773806	75.911716	49.002036	934.001446	43.890156	313.317418	750.283539	43.724034	291.610271	751.302481	42.736217	83.479740	944.944501	41.314311	83.407566	812.185705	76.023132	252.401769	822.326541	81.895009	126.094759	824.259758	410.466582	228.340715	839.376092	406.236261	163.834780	
1354	5.416000	883.823097	1282.366276	339.911401	845.158875	1281.039596	36.253460	776.916862	1346.269846	189.033583	934.822559	872.953773	345.014066	954.445720	873.659730	76.234743	740.637779	900.538683	193.372756	864.658237	786.296248	392.190635	895.099223	773.626864	15.862655	838.385701	438.368797	355.520606	848.813117	434.603900	37.319068	818.976521	377.927452	360.420913	810.137868	79.325534	332.325876	840.533793	367.442071	31.817406	818.779647	75.912744	48.989199	933.993340	43.889783	313.314915	750.232458	43.725442	291.611969	751.317203	42.730499	83.488569	944.938779	41.308276	83.401784	812.170923	76.023884	252.405882	822.304726	81.890568	126.096621	824.237704	410.448849	228.347138	839.349449	406.239152	163.831532	
1355	5.420000	883.782506	1282.359123	339.903116	845.133185	1281.045914	36.243655	776.906490	1346.274137	189.020380	934.770465	872.963190	345.036596	954.423547	873.676538	76.230630	740.605235	900.542378	193.367884	864.620686	786.284149	392.194867	895.095110	773.633599	15.880840	838.373065	438.357800	355.506718	848.798752	434.600651	37.314195	818.960488	377.935290	360.419929	810.125232	79.329759	332.330942	840.496421	367.431045	31.814631	818.770409	75.924307	48.982419	933.986008	43.890540	313.306838	750.232339	43.724395	291.590393	751.306295	42.740501	83.475210	944.929779	41.316759	83.395325	812.165499	76.023780	252.397180	822.313428	81.906825	126.091212	824.213088	410.446167	228.354871	839.332938	406.236798	163.822502	
